<mxfile host="Electron" modified="2024-03-20T15:35:14.157Z" agent="Mozilla/5.0 (Windows NT 10.0; Win64; x64) AppleWebKit/537.36 (KHTML, like Gecko) draw.io/23.1.5 Chrome/120.0.6099.109 Electron/28.1.0 Safari/537.36" etag="J-61qP357m4nWBS0J6MO" version="23.1.5" type="device">
  <diagram name="Page-1" id="n5OX0-BozeB_LrgIzCpB">
    <mxGraphModel dx="2973" dy="2108" grid="1" gridSize="10" guides="1" tooltips="1" connect="1" arrows="1" fold="1" page="1" pageScale="1" pageWidth="850" pageHeight="1100" math="0" shadow="0">
      <root>
        <mxCell id="0" />
        <mxCell id="1" parent="0" />
        <mxCell id="3uJsMY3rL7ngxhOJtAn0-136" value="Users" style="shape=table;startSize=30;container=1;collapsible=1;childLayout=tableLayout;fixedRows=1;rowLines=0;fontStyle=1;align=center;resizeLast=1;html=1;" parent="1" vertex="1">
          <mxGeometry x="770" y="-370" width="240" height="170" as="geometry" />
        </mxCell>
        <mxCell id="3uJsMY3rL7ngxhOJtAn0-137" value="" style="shape=tableRow;horizontal=0;startSize=0;swimlaneHead=0;swimlaneBody=0;fillColor=none;collapsible=0;dropTarget=0;points=[[0,0.5],[1,0.5]];portConstraint=eastwest;top=0;left=0;right=0;bottom=1;" parent="3uJsMY3rL7ngxhOJtAn0-136" vertex="1">
          <mxGeometry y="30" width="240" height="30" as="geometry" />
        </mxCell>
        <mxCell id="3uJsMY3rL7ngxhOJtAn0-138" value="PK" style="shape=partialRectangle;connectable=0;fillColor=none;top=0;left=0;bottom=0;right=0;fontStyle=1;overflow=hidden;whiteSpace=wrap;html=1;" parent="3uJsMY3rL7ngxhOJtAn0-137" vertex="1">
          <mxGeometry width="30" height="30" as="geometry">
            <mxRectangle width="30" height="30" as="alternateBounds" />
          </mxGeometry>
        </mxCell>
        <mxCell id="3uJsMY3rL7ngxhOJtAn0-139" value="" style="shape=partialRectangle;connectable=0;fillColor=none;top=0;left=0;bottom=0;right=0;align=left;spacingLeft=6;fontStyle=5;overflow=hidden;whiteSpace=wrap;html=1;" parent="3uJsMY3rL7ngxhOJtAn0-137" vertex="1">
          <mxGeometry x="30" width="210" height="30" as="geometry">
            <mxRectangle width="210" height="30" as="alternateBounds" />
          </mxGeometry>
        </mxCell>
        <mxCell id="3uJsMY3rL7ngxhOJtAn0-140" value="" style="shape=tableRow;horizontal=0;startSize=0;swimlaneHead=0;swimlaneBody=0;fillColor=none;collapsible=0;dropTarget=0;points=[[0,0.5],[1,0.5]];portConstraint=eastwest;top=0;left=0;right=0;bottom=0;" parent="3uJsMY3rL7ngxhOJtAn0-136" vertex="1">
          <mxGeometry y="60" width="240" height="20" as="geometry" />
        </mxCell>
        <mxCell id="3uJsMY3rL7ngxhOJtAn0-141" value="" style="shape=partialRectangle;connectable=0;fillColor=none;top=0;left=0;bottom=0;right=0;editable=1;overflow=hidden;whiteSpace=wrap;html=1;" parent="3uJsMY3rL7ngxhOJtAn0-140" vertex="1">
          <mxGeometry width="30" height="20" as="geometry">
            <mxRectangle width="30" height="20" as="alternateBounds" />
          </mxGeometry>
        </mxCell>
        <mxCell id="3uJsMY3rL7ngxhOJtAn0-142" value="Name&amp;nbsp;varchar(512) NOT NULL" style="shape=partialRectangle;connectable=0;fillColor=none;top=0;left=0;bottom=0;right=0;align=left;spacingLeft=6;overflow=hidden;whiteSpace=wrap;html=1;" parent="3uJsMY3rL7ngxhOJtAn0-140" vertex="1">
          <mxGeometry x="30" width="210" height="20" as="geometry">
            <mxRectangle width="210" height="20" as="alternateBounds" />
          </mxGeometry>
        </mxCell>
        <mxCell id="3uJsMY3rL7ngxhOJtAn0-143" value="" style="shape=tableRow;horizontal=0;startSize=0;swimlaneHead=0;swimlaneBody=0;fillColor=none;collapsible=0;dropTarget=0;points=[[0,0.5],[1,0.5]];portConstraint=eastwest;top=0;left=0;right=0;bottom=0;" parent="3uJsMY3rL7ngxhOJtAn0-136" vertex="1">
          <mxGeometry y="80" width="240" height="30" as="geometry" />
        </mxCell>
        <mxCell id="3uJsMY3rL7ngxhOJtAn0-144" value="" style="shape=partialRectangle;connectable=0;fillColor=none;top=0;left=0;bottom=0;right=0;editable=1;overflow=hidden;whiteSpace=wrap;html=1;" parent="3uJsMY3rL7ngxhOJtAn0-143" vertex="1">
          <mxGeometry width="30" height="30" as="geometry">
            <mxRectangle width="30" height="30" as="alternateBounds" />
          </mxGeometry>
        </mxCell>
        <mxCell id="3uJsMY3rL7ngxhOJtAn0-145" value="Email&amp;nbsp;varchar(512) NOT NULL" style="shape=partialRectangle;connectable=0;fillColor=none;top=0;left=0;bottom=0;right=0;align=left;spacingLeft=6;overflow=hidden;whiteSpace=wrap;html=1;" parent="3uJsMY3rL7ngxhOJtAn0-143" vertex="1">
          <mxGeometry x="30" width="210" height="30" as="geometry">
            <mxRectangle width="210" height="30" as="alternateBounds" />
          </mxGeometry>
        </mxCell>
        <mxCell id="3uJsMY3rL7ngxhOJtAn0-146" value="" style="shape=tableRow;horizontal=0;startSize=0;swimlaneHead=0;swimlaneBody=0;fillColor=none;collapsible=0;dropTarget=0;points=[[0,0.5],[1,0.5]];portConstraint=eastwest;top=0;left=0;right=0;bottom=0;" parent="3uJsMY3rL7ngxhOJtAn0-136" vertex="1">
          <mxGeometry y="110" width="240" height="30" as="geometry" />
        </mxCell>
        <mxCell id="3uJsMY3rL7ngxhOJtAn0-147" value="" style="shape=partialRectangle;connectable=0;fillColor=none;top=0;left=0;bottom=0;right=0;editable=1;overflow=hidden;whiteSpace=wrap;html=1;" parent="3uJsMY3rL7ngxhOJtAn0-146" vertex="1">
          <mxGeometry width="30" height="30" as="geometry">
            <mxRectangle width="30" height="30" as="alternateBounds" />
          </mxGeometry>
        </mxCell>
        <mxCell id="3uJsMY3rL7ngxhOJtAn0-148" value="Phone Number&amp;nbsp;int NOT NULL" style="shape=partialRectangle;connectable=0;fillColor=none;top=0;left=0;bottom=0;right=0;align=left;spacingLeft=6;overflow=hidden;whiteSpace=wrap;html=1;" parent="3uJsMY3rL7ngxhOJtAn0-146" vertex="1">
          <mxGeometry x="30" width="210" height="30" as="geometry">
            <mxRectangle width="210" height="30" as="alternateBounds" />
          </mxGeometry>
        </mxCell>
        <mxCell id="3uJsMY3rL7ngxhOJtAn0-149" value="" style="shape=tableRow;horizontal=0;startSize=0;swimlaneHead=0;swimlaneBody=0;fillColor=none;collapsible=0;dropTarget=0;points=[[0,0.5],[1,0.5]];portConstraint=eastwest;top=0;left=0;right=0;bottom=0;" parent="3uJsMY3rL7ngxhOJtAn0-136" vertex="1">
          <mxGeometry y="140" width="240" height="30" as="geometry" />
        </mxCell>
        <mxCell id="3uJsMY3rL7ngxhOJtAn0-150" value="" style="shape=partialRectangle;connectable=0;fillColor=none;top=0;left=0;bottom=0;right=0;editable=1;overflow=hidden;whiteSpace=wrap;html=1;" parent="3uJsMY3rL7ngxhOJtAn0-149" vertex="1">
          <mxGeometry width="30" height="30" as="geometry">
            <mxRectangle width="30" height="30" as="alternateBounds" />
          </mxGeometry>
        </mxCell>
        <mxCell id="3uJsMY3rL7ngxhOJtAn0-151" value="Address&amp;nbsp;varchar(512) NOT NULL" style="shape=partialRectangle;connectable=0;fillColor=none;top=0;left=0;bottom=0;right=0;align=left;spacingLeft=6;overflow=hidden;whiteSpace=wrap;html=1;" parent="3uJsMY3rL7ngxhOJtAn0-149" vertex="1">
          <mxGeometry x="30" width="210" height="30" as="geometry">
            <mxRectangle width="210" height="30" as="alternateBounds" />
          </mxGeometry>
        </mxCell>
        <mxCell id="3uJsMY3rL7ngxhOJtAn0-155" value="&lt;div style=&quot;text-align: center;&quot;&gt;&lt;b&gt;Customer ID&amp;nbsp; &amp;nbsp;&lt;/b&gt;&lt;/div&gt;&lt;div style=&quot;text-align: center;&quot;&gt;&lt;b&gt;int NOT NULL&lt;/b&gt;&lt;/div&gt;&lt;span id=&quot;docs-internal-guid-35186109-7fff-0d10-849f-b8f812b0c8e2&quot;&gt;&lt;/span&gt;" style="shape=partialRectangle;connectable=0;fillColor=none;top=0;left=0;bottom=0;right=0;align=left;spacingLeft=6;overflow=hidden;whiteSpace=wrap;html=1;" parent="1" vertex="1">
          <mxGeometry x="800" y="-340" width="200" height="30" as="geometry">
            <mxRectangle width="150" height="30" as="alternateBounds" />
          </mxGeometry>
        </mxCell>
        <mxCell id="3uJsMY3rL7ngxhOJtAn0-174" value="Bookings" style="shape=table;startSize=30;container=1;collapsible=1;childLayout=tableLayout;fixedRows=1;rowLines=0;fontStyle=1;align=center;resizeLast=1;html=1;whiteSpace=wrap;" parent="1" vertex="1">
          <mxGeometry x="340" y="-390" width="270" height="210" as="geometry" />
        </mxCell>
        <mxCell id="3uJsMY3rL7ngxhOJtAn0-175" value="" style="shape=tableRow;horizontal=0;startSize=0;swimlaneHead=0;swimlaneBody=0;fillColor=none;collapsible=0;dropTarget=0;points=[[0,0.5],[1,0.5]];portConstraint=eastwest;top=0;left=0;right=0;bottom=0;html=1;" parent="3uJsMY3rL7ngxhOJtAn0-174" vertex="1">
          <mxGeometry y="30" width="270" height="30" as="geometry" />
        </mxCell>
        <mxCell id="3uJsMY3rL7ngxhOJtAn0-176" value="PK," style="shape=partialRectangle;connectable=0;fillColor=none;top=0;left=0;bottom=0;right=0;fontStyle=1;overflow=hidden;html=1;whiteSpace=wrap;" parent="3uJsMY3rL7ngxhOJtAn0-175" vertex="1">
          <mxGeometry width="60" height="30" as="geometry">
            <mxRectangle width="60" height="30" as="alternateBounds" />
          </mxGeometry>
        </mxCell>
        <mxCell id="3uJsMY3rL7ngxhOJtAn0-177" value="" style="shape=partialRectangle;connectable=0;fillColor=none;top=0;left=0;bottom=0;right=0;align=left;spacingLeft=6;fontStyle=5;overflow=hidden;html=1;whiteSpace=wrap;" parent="3uJsMY3rL7ngxhOJtAn0-175" vertex="1">
          <mxGeometry x="60" width="210" height="30" as="geometry">
            <mxRectangle width="210" height="30" as="alternateBounds" />
          </mxGeometry>
        </mxCell>
        <mxCell id="3uJsMY3rL7ngxhOJtAn0-178" value="" style="shape=tableRow;horizontal=0;startSize=0;swimlaneHead=0;swimlaneBody=0;fillColor=none;collapsible=0;dropTarget=0;points=[[0,0.5],[1,0.5]];portConstraint=eastwest;top=0;left=0;right=0;bottom=1;html=1;" parent="3uJsMY3rL7ngxhOJtAn0-174" vertex="1">
          <mxGeometry y="60" width="270" height="30" as="geometry" />
        </mxCell>
        <mxCell id="3uJsMY3rL7ngxhOJtAn0-179" value="FK" style="shape=partialRectangle;connectable=0;fillColor=none;top=0;left=0;bottom=0;right=0;fontStyle=1;overflow=hidden;html=1;whiteSpace=wrap;" parent="3uJsMY3rL7ngxhOJtAn0-178" vertex="1">
          <mxGeometry width="60" height="30" as="geometry">
            <mxRectangle width="60" height="30" as="alternateBounds" />
          </mxGeometry>
        </mxCell>
        <mxCell id="3uJsMY3rL7ngxhOJtAn0-180" value="" style="shape=partialRectangle;connectable=0;fillColor=none;top=0;left=0;bottom=0;right=0;align=left;spacingLeft=6;fontStyle=5;overflow=hidden;html=1;whiteSpace=wrap;" parent="3uJsMY3rL7ngxhOJtAn0-178" vertex="1">
          <mxGeometry x="60" width="210" height="30" as="geometry">
            <mxRectangle width="210" height="30" as="alternateBounds" />
          </mxGeometry>
        </mxCell>
        <mxCell id="3uJsMY3rL7ngxhOJtAn0-181" value="" style="shape=tableRow;horizontal=0;startSize=0;swimlaneHead=0;swimlaneBody=0;fillColor=none;collapsible=0;dropTarget=0;points=[[0,0.5],[1,0.5]];portConstraint=eastwest;top=0;left=0;right=0;bottom=0;html=1;" parent="3uJsMY3rL7ngxhOJtAn0-174" vertex="1">
          <mxGeometry y="90" width="270" height="30" as="geometry" />
        </mxCell>
        <mxCell id="3uJsMY3rL7ngxhOJtAn0-182" value="&lt;b&gt;FK&lt;/b&gt;" style="shape=partialRectangle;connectable=0;fillColor=none;top=0;left=0;bottom=0;right=0;editable=1;overflow=hidden;html=1;whiteSpace=wrap;" parent="3uJsMY3rL7ngxhOJtAn0-181" vertex="1">
          <mxGeometry width="60" height="30" as="geometry">
            <mxRectangle width="60" height="30" as="alternateBounds" />
          </mxGeometry>
        </mxCell>
        <mxCell id="3uJsMY3rL7ngxhOJtAn0-183" value="&lt;div&gt;Customer ID int NOT NULL&lt;/div&gt;&lt;div&gt;&lt;br&gt;&lt;/div&gt;" style="shape=partialRectangle;connectable=0;fillColor=none;top=0;left=0;bottom=0;right=0;align=left;spacingLeft=6;overflow=hidden;html=1;whiteSpace=wrap;" parent="3uJsMY3rL7ngxhOJtAn0-181" vertex="1">
          <mxGeometry x="60" width="210" height="30" as="geometry">
            <mxRectangle width="210" height="30" as="alternateBounds" />
          </mxGeometry>
        </mxCell>
        <mxCell id="3uJsMY3rL7ngxhOJtAn0-184" value="" style="shape=tableRow;horizontal=0;startSize=0;swimlaneHead=0;swimlaneBody=0;fillColor=none;collapsible=0;dropTarget=0;points=[[0,0.5],[1,0.5]];portConstraint=eastwest;top=0;left=0;right=0;bottom=0;html=1;" parent="3uJsMY3rL7ngxhOJtAn0-174" vertex="1">
          <mxGeometry y="120" width="270" height="30" as="geometry" />
        </mxCell>
        <mxCell id="3uJsMY3rL7ngxhOJtAn0-185" value="" style="shape=partialRectangle;connectable=0;fillColor=none;top=0;left=0;bottom=0;right=0;editable=1;overflow=hidden;html=1;whiteSpace=wrap;" parent="3uJsMY3rL7ngxhOJtAn0-184" vertex="1">
          <mxGeometry width="60" height="30" as="geometry">
            <mxRectangle width="60" height="30" as="alternateBounds" />
          </mxGeometry>
        </mxCell>
        <mxCell id="3uJsMY3rL7ngxhOJtAn0-186" value="&lt;div style=&quot;text-align: center;&quot;&gt;Booking Date&amp;nbsp;Date NOT NULL&lt;br&gt;&lt;/div&gt;" style="shape=partialRectangle;connectable=0;fillColor=none;top=0;left=0;bottom=0;right=0;align=left;spacingLeft=6;overflow=hidden;html=1;whiteSpace=wrap;" parent="3uJsMY3rL7ngxhOJtAn0-184" vertex="1">
          <mxGeometry x="60" width="210" height="30" as="geometry">
            <mxRectangle width="210" height="30" as="alternateBounds" />
          </mxGeometry>
        </mxCell>
        <mxCell id="3uJsMY3rL7ngxhOJtAn0-187" value="" style="shape=tableRow;horizontal=0;startSize=0;swimlaneHead=0;swimlaneBody=0;fillColor=none;collapsible=0;dropTarget=0;points=[[0,0.5],[1,0.5]];portConstraint=eastwest;top=0;left=0;right=0;bottom=0;html=1;" parent="3uJsMY3rL7ngxhOJtAn0-174" vertex="1">
          <mxGeometry y="150" width="270" height="30" as="geometry" />
        </mxCell>
        <mxCell id="3uJsMY3rL7ngxhOJtAn0-188" value="" style="shape=partialRectangle;connectable=0;fillColor=none;top=0;left=0;bottom=0;right=0;editable=1;overflow=hidden;html=1;whiteSpace=wrap;" parent="3uJsMY3rL7ngxhOJtAn0-187" vertex="1">
          <mxGeometry width="60" height="30" as="geometry">
            <mxRectangle width="60" height="30" as="alternateBounds" />
          </mxGeometry>
        </mxCell>
        <mxCell id="3uJsMY3rL7ngxhOJtAn0-189" value="Number of Guests&amp;nbsp;int NOT NULL" style="shape=partialRectangle;connectable=0;fillColor=none;top=0;left=0;bottom=0;right=0;align=left;spacingLeft=6;overflow=hidden;html=1;whiteSpace=wrap;" parent="3uJsMY3rL7ngxhOJtAn0-187" vertex="1">
          <mxGeometry x="60" width="210" height="30" as="geometry">
            <mxRectangle width="210" height="30" as="alternateBounds" />
          </mxGeometry>
        </mxCell>
        <mxCell id="3uJsMY3rL7ngxhOJtAn0-190" value="Package ID&amp;nbsp;int NOT NULL" style="shape=partialRectangle;connectable=0;fillColor=none;top=0;left=0;bottom=0;right=0;align=left;spacingLeft=6;overflow=hidden;html=1;whiteSpace=wrap;" parent="1" vertex="1">
          <mxGeometry x="400" y="-330" width="210" height="30" as="geometry">
            <mxRectangle width="180" height="30" as="alternateBounds" />
          </mxGeometry>
        </mxCell>
        <mxCell id="3uJsMY3rL7ngxhOJtAn0-191" value="&lt;b&gt;Booking ID&amp;nbsp;&amp;nbsp;int&lt;/b&gt;&lt;b style=&quot;border-color: var(--border-color);&quot;&gt;(11)&lt;/b&gt;&lt;b&gt;&lt;br&gt;&amp;nbsp;NOT NUL&lt;/b&gt;" style="shape=partialRectangle;connectable=0;fillColor=none;top=0;left=0;bottom=0;right=0;align=left;spacingLeft=6;overflow=hidden;html=1;whiteSpace=wrap;" parent="1" vertex="1">
          <mxGeometry x="400" y="-360" width="210" height="30" as="geometry">
            <mxRectangle width="180" height="30" as="alternateBounds" />
          </mxGeometry>
        </mxCell>
        <mxCell id="3uJsMY3rL7ngxhOJtAn0-195" value="" style="shape=tableRow;horizontal=0;startSize=0;swimlaneHead=0;swimlaneBody=0;fillColor=none;collapsible=0;dropTarget=0;points=[[0,0.5],[1,0.5]];portConstraint=eastwest;top=0;left=0;right=0;bottom=0;html=1;" parent="1" vertex="1">
          <mxGeometry x="340" y="-210" width="270" height="30" as="geometry" />
        </mxCell>
        <mxCell id="3uJsMY3rL7ngxhOJtAn0-196" value="" style="shape=partialRectangle;connectable=0;fillColor=none;top=0;left=0;bottom=0;right=0;editable=1;overflow=hidden;html=1;whiteSpace=wrap;" parent="3uJsMY3rL7ngxhOJtAn0-195" vertex="1">
          <mxGeometry width="60" height="30" as="geometry">
            <mxRectangle width="60" height="30" as="alternateBounds" />
          </mxGeometry>
        </mxCell>
        <mxCell id="3uJsMY3rL7ngxhOJtAn0-197" value="&lt;div&gt;Total Price&amp;nbsp;&amp;nbsp;int NOT NULL&lt;/div&gt;&lt;div&gt;&lt;br&gt;&lt;/div&gt;" style="shape=partialRectangle;connectable=0;fillColor=none;top=0;left=0;bottom=0;right=0;align=left;spacingLeft=6;overflow=hidden;html=1;whiteSpace=wrap;" parent="3uJsMY3rL7ngxhOJtAn0-195" vertex="1">
          <mxGeometry x="60" width="210" height="30" as="geometry">
            <mxRectangle width="210" height="30" as="alternateBounds" />
          </mxGeometry>
        </mxCell>
        <mxCell id="3uJsMY3rL7ngxhOJtAn0-198" value="Payments" style="shape=table;startSize=30;container=1;collapsible=1;childLayout=tableLayout;fixedRows=1;rowLines=0;fontStyle=1;align=center;resizeLast=1;html=1;whiteSpace=wrap;" parent="1" vertex="1">
          <mxGeometry x="315" y="-680" width="280" height="180" as="geometry" />
        </mxCell>
        <mxCell id="3uJsMY3rL7ngxhOJtAn0-199" value="" style="shape=tableRow;horizontal=0;startSize=0;swimlaneHead=0;swimlaneBody=0;fillColor=none;collapsible=0;dropTarget=0;points=[[0,0.5],[1,0.5]];portConstraint=eastwest;top=0;left=0;right=0;bottom=0;html=1;" parent="3uJsMY3rL7ngxhOJtAn0-198" vertex="1">
          <mxGeometry y="30" width="280" height="30" as="geometry" />
        </mxCell>
        <mxCell id="3uJsMY3rL7ngxhOJtAn0-200" value="PK" style="shape=partialRectangle;connectable=0;fillColor=none;top=0;left=0;bottom=0;right=0;fontStyle=1;overflow=hidden;html=1;whiteSpace=wrap;" parent="3uJsMY3rL7ngxhOJtAn0-199" vertex="1">
          <mxGeometry width="60" height="30" as="geometry">
            <mxRectangle width="60" height="30" as="alternateBounds" />
          </mxGeometry>
        </mxCell>
        <mxCell id="3uJsMY3rL7ngxhOJtAn0-201" value="" style="shape=partialRectangle;connectable=0;fillColor=none;top=0;left=0;bottom=0;right=0;align=left;spacingLeft=6;fontStyle=5;overflow=hidden;html=1;whiteSpace=wrap;" parent="3uJsMY3rL7ngxhOJtAn0-199" vertex="1">
          <mxGeometry x="60" width="220" height="30" as="geometry">
            <mxRectangle width="220" height="30" as="alternateBounds" />
          </mxGeometry>
        </mxCell>
        <mxCell id="3uJsMY3rL7ngxhOJtAn0-202" value="" style="shape=tableRow;horizontal=0;startSize=0;swimlaneHead=0;swimlaneBody=0;fillColor=none;collapsible=0;dropTarget=0;points=[[0,0.5],[1,0.5]];portConstraint=eastwest;top=0;left=0;right=0;bottom=1;html=1;" parent="3uJsMY3rL7ngxhOJtAn0-198" vertex="1">
          <mxGeometry y="60" width="280" height="30" as="geometry" />
        </mxCell>
        <mxCell id="3uJsMY3rL7ngxhOJtAn0-203" value="FK" style="shape=partialRectangle;connectable=0;fillColor=none;top=0;left=0;bottom=0;right=0;fontStyle=1;overflow=hidden;html=1;whiteSpace=wrap;" parent="3uJsMY3rL7ngxhOJtAn0-202" vertex="1">
          <mxGeometry width="60" height="30" as="geometry">
            <mxRectangle width="60" height="30" as="alternateBounds" />
          </mxGeometry>
        </mxCell>
        <mxCell id="3uJsMY3rL7ngxhOJtAn0-204" value="" style="shape=partialRectangle;connectable=0;fillColor=none;top=0;left=0;bottom=0;right=0;align=left;spacingLeft=6;fontStyle=5;overflow=hidden;html=1;whiteSpace=wrap;" parent="3uJsMY3rL7ngxhOJtAn0-202" vertex="1">
          <mxGeometry x="60" width="220" height="30" as="geometry">
            <mxRectangle width="220" height="30" as="alternateBounds" />
          </mxGeometry>
        </mxCell>
        <mxCell id="3uJsMY3rL7ngxhOJtAn0-205" value="" style="shape=tableRow;horizontal=0;startSize=0;swimlaneHead=0;swimlaneBody=0;fillColor=none;collapsible=0;dropTarget=0;points=[[0,0.5],[1,0.5]];portConstraint=eastwest;top=0;left=0;right=0;bottom=0;html=1;" parent="3uJsMY3rL7ngxhOJtAn0-198" vertex="1">
          <mxGeometry y="90" width="280" height="30" as="geometry" />
        </mxCell>
        <mxCell id="3uJsMY3rL7ngxhOJtAn0-206" value="" style="shape=partialRectangle;connectable=0;fillColor=none;top=0;left=0;bottom=0;right=0;editable=1;overflow=hidden;html=1;whiteSpace=wrap;" parent="3uJsMY3rL7ngxhOJtAn0-205" vertex="1">
          <mxGeometry width="60" height="30" as="geometry">
            <mxRectangle width="60" height="30" as="alternateBounds" />
          </mxGeometry>
        </mxCell>
        <mxCell id="3uJsMY3rL7ngxhOJtAn0-207" value="Payment Date&amp;nbsp;Date NOT NULL" style="shape=partialRectangle;connectable=0;fillColor=none;top=0;left=0;bottom=0;right=0;align=left;spacingLeft=6;overflow=hidden;html=1;whiteSpace=wrap;" parent="3uJsMY3rL7ngxhOJtAn0-205" vertex="1">
          <mxGeometry x="60" width="220" height="30" as="geometry">
            <mxRectangle width="220" height="30" as="alternateBounds" />
          </mxGeometry>
        </mxCell>
        <mxCell id="3uJsMY3rL7ngxhOJtAn0-208" value="" style="shape=tableRow;horizontal=0;startSize=0;swimlaneHead=0;swimlaneBody=0;fillColor=none;collapsible=0;dropTarget=0;points=[[0,0.5],[1,0.5]];portConstraint=eastwest;top=0;left=0;right=0;bottom=0;html=1;" parent="3uJsMY3rL7ngxhOJtAn0-198" vertex="1">
          <mxGeometry y="120" width="280" height="30" as="geometry" />
        </mxCell>
        <mxCell id="3uJsMY3rL7ngxhOJtAn0-209" value="" style="shape=partialRectangle;connectable=0;fillColor=none;top=0;left=0;bottom=0;right=0;editable=1;overflow=hidden;html=1;whiteSpace=wrap;" parent="3uJsMY3rL7ngxhOJtAn0-208" vertex="1">
          <mxGeometry width="60" height="30" as="geometry">
            <mxRectangle width="60" height="30" as="alternateBounds" />
          </mxGeometry>
        </mxCell>
        <mxCell id="3uJsMY3rL7ngxhOJtAn0-210" value="&lt;div style=&quot;text-align: center;&quot;&gt;Method&amp;nbsp;varchar(512) NOT NULL&lt;/div&gt;" style="shape=partialRectangle;connectable=0;fillColor=none;top=0;left=0;bottom=0;right=0;align=left;spacingLeft=6;overflow=hidden;html=1;whiteSpace=wrap;" parent="3uJsMY3rL7ngxhOJtAn0-208" vertex="1">
          <mxGeometry x="60" width="220" height="30" as="geometry">
            <mxRectangle width="220" height="30" as="alternateBounds" />
          </mxGeometry>
        </mxCell>
        <mxCell id="3uJsMY3rL7ngxhOJtAn0-211" value="" style="shape=tableRow;horizontal=0;startSize=0;swimlaneHead=0;swimlaneBody=0;fillColor=none;collapsible=0;dropTarget=0;points=[[0,0.5],[1,0.5]];portConstraint=eastwest;top=0;left=0;right=0;bottom=0;html=1;" parent="3uJsMY3rL7ngxhOJtAn0-198" vertex="1">
          <mxGeometry y="150" width="280" height="30" as="geometry" />
        </mxCell>
        <mxCell id="3uJsMY3rL7ngxhOJtAn0-212" value="" style="shape=partialRectangle;connectable=0;fillColor=none;top=0;left=0;bottom=0;right=0;editable=1;overflow=hidden;html=1;whiteSpace=wrap;" parent="3uJsMY3rL7ngxhOJtAn0-211" vertex="1">
          <mxGeometry width="60" height="30" as="geometry">
            <mxRectangle width="60" height="30" as="alternateBounds" />
          </mxGeometry>
        </mxCell>
        <mxCell id="3uJsMY3rL7ngxhOJtAn0-213" value="&lt;div style=&quot;text-align: center;&quot;&gt;Amount&amp;nbsp;int NOT NULL&lt;/div&gt;" style="shape=partialRectangle;connectable=0;fillColor=none;top=0;left=0;bottom=0;right=0;align=left;spacingLeft=6;overflow=hidden;html=1;whiteSpace=wrap;" parent="3uJsMY3rL7ngxhOJtAn0-211" vertex="1">
          <mxGeometry x="60" width="220" height="30" as="geometry">
            <mxRectangle width="220" height="30" as="alternateBounds" />
          </mxGeometry>
        </mxCell>
        <mxCell id="3uJsMY3rL7ngxhOJtAn0-214" value="Booking ID&amp;nbsp;int NOT NULL" style="shape=partialRectangle;connectable=0;fillColor=none;top=0;left=0;bottom=0;right=0;align=left;spacingLeft=6;overflow=hidden;html=1;whiteSpace=wrap;" parent="1" vertex="1">
          <mxGeometry x="375" y="-617" width="160" height="30" as="geometry">
            <mxRectangle width="120" height="30" as="alternateBounds" />
          </mxGeometry>
        </mxCell>
        <mxCell id="3uJsMY3rL7ngxhOJtAn0-215" value="&lt;b&gt;Payment ID&amp;nbsp;int(11) NOT NULL&lt;/b&gt;" style="shape=partialRectangle;connectable=0;fillColor=none;top=0;left=0;bottom=0;right=0;align=left;spacingLeft=6;overflow=hidden;html=1;whiteSpace=wrap;" parent="1" vertex="1">
          <mxGeometry x="375" y="-645" width="210" height="30" as="geometry">
            <mxRectangle width="120" height="30" as="alternateBounds" />
          </mxGeometry>
        </mxCell>
        <mxCell id="3uJsMY3rL7ngxhOJtAn0-216" value="Packages" style="shape=table;startSize=30;container=1;collapsible=1;childLayout=tableLayout;fixedRows=1;rowLines=0;fontStyle=1;align=center;resizeLast=1;html=1;" parent="1" vertex="1">
          <mxGeometry x="-30" y="-220" width="240" height="160" as="geometry" />
        </mxCell>
        <mxCell id="3uJsMY3rL7ngxhOJtAn0-217" value="" style="shape=tableRow;horizontal=0;startSize=0;swimlaneHead=0;swimlaneBody=0;fillColor=none;collapsible=0;dropTarget=0;points=[[0,0.5],[1,0.5]];portConstraint=eastwest;top=0;left=0;right=0;bottom=1;" parent="3uJsMY3rL7ngxhOJtAn0-216" vertex="1">
          <mxGeometry y="30" width="240" height="30" as="geometry" />
        </mxCell>
        <mxCell id="3uJsMY3rL7ngxhOJtAn0-218" value="PK" style="shape=partialRectangle;connectable=0;fillColor=none;top=0;left=0;bottom=0;right=0;fontStyle=1;overflow=hidden;whiteSpace=wrap;html=1;" parent="3uJsMY3rL7ngxhOJtAn0-217" vertex="1">
          <mxGeometry width="30" height="30" as="geometry">
            <mxRectangle width="30" height="30" as="alternateBounds" />
          </mxGeometry>
        </mxCell>
        <mxCell id="3uJsMY3rL7ngxhOJtAn0-219" value="" style="shape=partialRectangle;connectable=0;fillColor=none;top=0;left=0;bottom=0;right=0;align=left;spacingLeft=6;fontStyle=5;overflow=hidden;whiteSpace=wrap;html=1;" parent="3uJsMY3rL7ngxhOJtAn0-217" vertex="1">
          <mxGeometry x="30" width="210" height="30" as="geometry">
            <mxRectangle width="210" height="30" as="alternateBounds" />
          </mxGeometry>
        </mxCell>
        <mxCell id="3uJsMY3rL7ngxhOJtAn0-220" value="" style="shape=tableRow;horizontal=0;startSize=0;swimlaneHead=0;swimlaneBody=0;fillColor=none;collapsible=0;dropTarget=0;points=[[0,0.5],[1,0.5]];portConstraint=eastwest;top=0;left=0;right=0;bottom=0;" parent="3uJsMY3rL7ngxhOJtAn0-216" vertex="1">
          <mxGeometry y="60" width="240" height="20" as="geometry" />
        </mxCell>
        <mxCell id="3uJsMY3rL7ngxhOJtAn0-221" value="" style="shape=partialRectangle;connectable=0;fillColor=none;top=0;left=0;bottom=0;right=0;editable=1;overflow=hidden;whiteSpace=wrap;html=1;" parent="3uJsMY3rL7ngxhOJtAn0-220" vertex="1">
          <mxGeometry width="30" height="20" as="geometry">
            <mxRectangle width="30" height="20" as="alternateBounds" />
          </mxGeometry>
        </mxCell>
        <mxCell id="3uJsMY3rL7ngxhOJtAn0-222" value="Name&amp;nbsp;varchar(512) NOT NULL" style="shape=partialRectangle;connectable=0;fillColor=none;top=0;left=0;bottom=0;right=0;align=left;spacingLeft=6;overflow=hidden;whiteSpace=wrap;html=1;" parent="3uJsMY3rL7ngxhOJtAn0-220" vertex="1">
          <mxGeometry x="30" width="210" height="20" as="geometry">
            <mxRectangle width="210" height="20" as="alternateBounds" />
          </mxGeometry>
        </mxCell>
        <mxCell id="3uJsMY3rL7ngxhOJtAn0-223" value="" style="shape=tableRow;horizontal=0;startSize=0;swimlaneHead=0;swimlaneBody=0;fillColor=none;collapsible=0;dropTarget=0;points=[[0,0.5],[1,0.5]];portConstraint=eastwest;top=0;left=0;right=0;bottom=0;" parent="3uJsMY3rL7ngxhOJtAn0-216" vertex="1">
          <mxGeometry y="80" width="240" height="30" as="geometry" />
        </mxCell>
        <mxCell id="3uJsMY3rL7ngxhOJtAn0-224" value="" style="shape=partialRectangle;connectable=0;fillColor=none;top=0;left=0;bottom=0;right=0;editable=1;overflow=hidden;whiteSpace=wrap;html=1;" parent="3uJsMY3rL7ngxhOJtAn0-223" vertex="1">
          <mxGeometry width="30" height="30" as="geometry">
            <mxRectangle width="30" height="30" as="alternateBounds" />
          </mxGeometry>
        </mxCell>
        <mxCell id="3uJsMY3rL7ngxhOJtAn0-225" value="Description&amp;nbsp;varchar(240) NOT NULL" style="shape=partialRectangle;connectable=0;fillColor=none;top=0;left=0;bottom=0;right=0;align=left;spacingLeft=6;overflow=hidden;whiteSpace=wrap;html=1;" parent="3uJsMY3rL7ngxhOJtAn0-223" vertex="1">
          <mxGeometry x="30" width="210" height="30" as="geometry">
            <mxRectangle width="210" height="30" as="alternateBounds" />
          </mxGeometry>
        </mxCell>
        <mxCell id="3uJsMY3rL7ngxhOJtAn0-226" value="" style="shape=tableRow;horizontal=0;startSize=0;swimlaneHead=0;swimlaneBody=0;fillColor=none;collapsible=0;dropTarget=0;points=[[0,0.5],[1,0.5]];portConstraint=eastwest;top=0;left=0;right=0;bottom=0;" parent="3uJsMY3rL7ngxhOJtAn0-216" vertex="1">
          <mxGeometry y="110" width="240" height="30" as="geometry" />
        </mxCell>
        <mxCell id="3uJsMY3rL7ngxhOJtAn0-227" value="" style="shape=partialRectangle;connectable=0;fillColor=none;top=0;left=0;bottom=0;right=0;editable=1;overflow=hidden;whiteSpace=wrap;html=1;" parent="3uJsMY3rL7ngxhOJtAn0-226" vertex="1">
          <mxGeometry width="30" height="30" as="geometry">
            <mxRectangle width="30" height="30" as="alternateBounds" />
          </mxGeometry>
        </mxCell>
        <mxCell id="3uJsMY3rL7ngxhOJtAn0-228" value="Price&amp;nbsp;int NOT NULL" style="shape=partialRectangle;connectable=0;fillColor=none;top=0;left=0;bottom=0;right=0;align=left;spacingLeft=6;overflow=hidden;whiteSpace=wrap;html=1;" parent="3uJsMY3rL7ngxhOJtAn0-226" vertex="1">
          <mxGeometry x="30" width="210" height="30" as="geometry">
            <mxRectangle width="210" height="30" as="alternateBounds" />
          </mxGeometry>
        </mxCell>
        <mxCell id="3uJsMY3rL7ngxhOJtAn0-232" value="" style="shape=tableRow;horizontal=0;startSize=0;swimlaneHead=0;swimlaneBody=0;fillColor=none;collapsible=0;dropTarget=0;points=[[0,0.5],[1,0.5]];portConstraint=eastwest;top=0;left=0;right=0;bottom=0;" parent="3uJsMY3rL7ngxhOJtAn0-216" vertex="1">
          <mxGeometry y="140" width="240" height="20" as="geometry" />
        </mxCell>
        <mxCell id="3uJsMY3rL7ngxhOJtAn0-233" value="" style="shape=partialRectangle;connectable=0;fillColor=none;top=0;left=0;bottom=0;right=0;editable=1;overflow=hidden;whiteSpace=wrap;html=1;" parent="3uJsMY3rL7ngxhOJtAn0-232" vertex="1">
          <mxGeometry width="30" height="20" as="geometry">
            <mxRectangle width="30" height="20" as="alternateBounds" />
          </mxGeometry>
        </mxCell>
        <mxCell id="3uJsMY3rL7ngxhOJtAn0-234" value="Destination&amp;nbsp;varchar(512) NOT NULL" style="shape=partialRectangle;connectable=0;fillColor=none;top=0;left=0;bottom=0;right=0;align=left;spacingLeft=6;overflow=hidden;whiteSpace=wrap;html=1;" parent="3uJsMY3rL7ngxhOJtAn0-232" vertex="1">
          <mxGeometry x="30" width="210" height="20" as="geometry">
            <mxRectangle width="210" height="20" as="alternateBounds" />
          </mxGeometry>
        </mxCell>
        <mxCell id="3uJsMY3rL7ngxhOJtAn0-235" value="&lt;div style=&quot;text-align: center;&quot;&gt;&lt;b&gt;Package ID&amp;nbsp;&lt;/b&gt;&lt;/div&gt;" style="shape=partialRectangle;connectable=0;fillColor=none;top=0;left=0;bottom=0;right=0;align=left;spacingLeft=6;overflow=hidden;whiteSpace=wrap;html=1;" parent="1" vertex="1">
          <mxGeometry x="2" y="-190" width="180" height="30" as="geometry">
            <mxRectangle width="150" height="30" as="alternateBounds" />
          </mxGeometry>
        </mxCell>
        <mxCell id="3uJsMY3rL7ngxhOJtAn0-236" value="Reviews" style="shape=table;startSize=30;container=1;collapsible=1;childLayout=tableLayout;fixedRows=1;rowLines=0;fontStyle=1;align=center;resizeLast=1;html=1;" parent="1" vertex="1">
          <mxGeometry x="1170" y="-390" width="263" height="190" as="geometry" />
        </mxCell>
        <mxCell id="3uJsMY3rL7ngxhOJtAn0-237" value="" style="shape=tableRow;horizontal=0;startSize=0;swimlaneHead=0;swimlaneBody=0;fillColor=none;collapsible=0;dropTarget=0;points=[[0,0.5],[1,0.5]];portConstraint=eastwest;top=0;left=0;right=0;bottom=1;" parent="3uJsMY3rL7ngxhOJtAn0-236" vertex="1">
          <mxGeometry y="30" width="263" height="30" as="geometry" />
        </mxCell>
        <mxCell id="3uJsMY3rL7ngxhOJtAn0-238" value="PK" style="shape=partialRectangle;connectable=0;fillColor=none;top=0;left=0;bottom=0;right=0;fontStyle=1;overflow=hidden;whiteSpace=wrap;html=1;" parent="3uJsMY3rL7ngxhOJtAn0-237" vertex="1">
          <mxGeometry width="30" height="30" as="geometry">
            <mxRectangle width="30" height="30" as="alternateBounds" />
          </mxGeometry>
        </mxCell>
        <mxCell id="3uJsMY3rL7ngxhOJtAn0-239" value="" style="shape=partialRectangle;connectable=0;fillColor=none;top=0;left=0;bottom=0;right=0;align=left;spacingLeft=6;fontStyle=5;overflow=hidden;whiteSpace=wrap;html=1;" parent="3uJsMY3rL7ngxhOJtAn0-237" vertex="1">
          <mxGeometry x="30" width="233" height="30" as="geometry">
            <mxRectangle width="233" height="30" as="alternateBounds" />
          </mxGeometry>
        </mxCell>
        <mxCell id="3uJsMY3rL7ngxhOJtAn0-240" value="" style="shape=tableRow;horizontal=0;startSize=0;swimlaneHead=0;swimlaneBody=0;fillColor=none;collapsible=0;dropTarget=0;points=[[0,0.5],[1,0.5]];portConstraint=eastwest;top=0;left=0;right=0;bottom=0;" parent="3uJsMY3rL7ngxhOJtAn0-236" vertex="1">
          <mxGeometry y="60" width="263" height="20" as="geometry" />
        </mxCell>
        <mxCell id="3uJsMY3rL7ngxhOJtAn0-241" value="&lt;b&gt;FK&lt;/b&gt;" style="shape=partialRectangle;connectable=0;fillColor=none;top=0;left=0;bottom=0;right=0;editable=1;overflow=hidden;whiteSpace=wrap;html=1;" parent="3uJsMY3rL7ngxhOJtAn0-240" vertex="1">
          <mxGeometry width="30" height="20" as="geometry">
            <mxRectangle width="30" height="20" as="alternateBounds" />
          </mxGeometry>
        </mxCell>
        <mxCell id="3uJsMY3rL7ngxhOJtAn0-242" value="Customer ID&amp;nbsp;int NOT NULL" style="shape=partialRectangle;connectable=0;fillColor=none;top=0;left=0;bottom=0;right=0;align=left;spacingLeft=6;overflow=hidden;whiteSpace=wrap;html=1;" parent="3uJsMY3rL7ngxhOJtAn0-240" vertex="1">
          <mxGeometry x="30" width="233" height="20" as="geometry">
            <mxRectangle width="233" height="20" as="alternateBounds" />
          </mxGeometry>
        </mxCell>
        <mxCell id="3uJsMY3rL7ngxhOJtAn0-243" value="" style="shape=tableRow;horizontal=0;startSize=0;swimlaneHead=0;swimlaneBody=0;fillColor=none;collapsible=0;dropTarget=0;points=[[0,0.5],[1,0.5]];portConstraint=eastwest;top=0;left=0;right=0;bottom=0;" parent="3uJsMY3rL7ngxhOJtAn0-236" vertex="1">
          <mxGeometry y="80" width="263" height="30" as="geometry" />
        </mxCell>
        <mxCell id="3uJsMY3rL7ngxhOJtAn0-244" value="&lt;b&gt;FK&lt;/b&gt;" style="shape=partialRectangle;connectable=0;fillColor=none;top=0;left=0;bottom=0;right=0;editable=1;overflow=hidden;whiteSpace=wrap;html=1;" parent="3uJsMY3rL7ngxhOJtAn0-243" vertex="1">
          <mxGeometry width="30" height="30" as="geometry">
            <mxRectangle width="30" height="30" as="alternateBounds" />
          </mxGeometry>
        </mxCell>
        <mxCell id="3uJsMY3rL7ngxhOJtAn0-245" value="Booking&amp;nbsp; ID&amp;nbsp;int NOT NULL" style="shape=partialRectangle;connectable=0;fillColor=none;top=0;left=0;bottom=0;right=0;align=left;spacingLeft=6;overflow=hidden;whiteSpace=wrap;html=1;" parent="3uJsMY3rL7ngxhOJtAn0-243" vertex="1">
          <mxGeometry x="30" width="233" height="30" as="geometry">
            <mxRectangle width="233" height="30" as="alternateBounds" />
          </mxGeometry>
        </mxCell>
        <mxCell id="3uJsMY3rL7ngxhOJtAn0-246" value="" style="shape=tableRow;horizontal=0;startSize=0;swimlaneHead=0;swimlaneBody=0;fillColor=none;collapsible=0;dropTarget=0;points=[[0,0.5],[1,0.5]];portConstraint=eastwest;top=0;left=0;right=0;bottom=0;" parent="3uJsMY3rL7ngxhOJtAn0-236" vertex="1">
          <mxGeometry y="110" width="263" height="30" as="geometry" />
        </mxCell>
        <mxCell id="3uJsMY3rL7ngxhOJtAn0-247" value="" style="shape=partialRectangle;connectable=0;fillColor=none;top=0;left=0;bottom=0;right=0;editable=1;overflow=hidden;whiteSpace=wrap;html=1;" parent="3uJsMY3rL7ngxhOJtAn0-246" vertex="1">
          <mxGeometry width="30" height="30" as="geometry">
            <mxRectangle width="30" height="30" as="alternateBounds" />
          </mxGeometry>
        </mxCell>
        <mxCell id="3uJsMY3rL7ngxhOJtAn0-248" value="Review&amp;nbsp;varchar(800) NOT NUL" style="shape=partialRectangle;connectable=0;fillColor=none;top=0;left=0;bottom=0;right=0;align=left;spacingLeft=6;overflow=hidden;whiteSpace=wrap;html=1;" parent="3uJsMY3rL7ngxhOJtAn0-246" vertex="1">
          <mxGeometry x="30" width="233" height="30" as="geometry">
            <mxRectangle width="233" height="30" as="alternateBounds" />
          </mxGeometry>
        </mxCell>
        <mxCell id="3uJsMY3rL7ngxhOJtAn0-249" value="" style="shape=tableRow;horizontal=0;startSize=0;swimlaneHead=0;swimlaneBody=0;fillColor=none;collapsible=0;dropTarget=0;points=[[0,0.5],[1,0.5]];portConstraint=eastwest;top=0;left=0;right=0;bottom=0;" parent="3uJsMY3rL7ngxhOJtAn0-236" vertex="1">
          <mxGeometry y="140" width="263" height="30" as="geometry" />
        </mxCell>
        <mxCell id="3uJsMY3rL7ngxhOJtAn0-250" value="" style="shape=partialRectangle;connectable=0;fillColor=none;top=0;left=0;bottom=0;right=0;editable=1;overflow=hidden;whiteSpace=wrap;html=1;" parent="3uJsMY3rL7ngxhOJtAn0-249" vertex="1">
          <mxGeometry width="30" height="30" as="geometry">
            <mxRectangle width="30" height="30" as="alternateBounds" />
          </mxGeometry>
        </mxCell>
        <mxCell id="3uJsMY3rL7ngxhOJtAn0-251" value="Rating&amp;nbsp;int NOT NULL" style="shape=partialRectangle;connectable=0;fillColor=none;top=0;left=0;bottom=0;right=0;align=left;spacingLeft=6;overflow=hidden;whiteSpace=wrap;html=1;" parent="3uJsMY3rL7ngxhOJtAn0-249" vertex="1">
          <mxGeometry x="30" width="233" height="30" as="geometry">
            <mxRectangle width="233" height="30" as="alternateBounds" />
          </mxGeometry>
        </mxCell>
        <mxCell id="3uJsMY3rL7ngxhOJtAn0-252" value="" style="shape=tableRow;horizontal=0;startSize=0;swimlaneHead=0;swimlaneBody=0;fillColor=none;collapsible=0;dropTarget=0;points=[[0,0.5],[1,0.5]];portConstraint=eastwest;top=0;left=0;right=0;bottom=0;" parent="3uJsMY3rL7ngxhOJtAn0-236" vertex="1">
          <mxGeometry y="170" width="263" height="20" as="geometry" />
        </mxCell>
        <mxCell id="3uJsMY3rL7ngxhOJtAn0-253" value="" style="shape=partialRectangle;connectable=0;fillColor=none;top=0;left=0;bottom=0;right=0;editable=1;overflow=hidden;whiteSpace=wrap;html=1;" parent="3uJsMY3rL7ngxhOJtAn0-252" vertex="1">
          <mxGeometry width="30" height="20" as="geometry">
            <mxRectangle width="30" height="20" as="alternateBounds" />
          </mxGeometry>
        </mxCell>
        <mxCell id="3uJsMY3rL7ngxhOJtAn0-254" value="Date&amp;nbsp;Date NOT NULL" style="shape=partialRectangle;connectable=0;fillColor=none;top=0;left=0;bottom=0;right=0;align=left;spacingLeft=6;overflow=hidden;whiteSpace=wrap;html=1;" parent="3uJsMY3rL7ngxhOJtAn0-252" vertex="1">
          <mxGeometry x="30" width="233" height="20" as="geometry">
            <mxRectangle width="233" height="20" as="alternateBounds" />
          </mxGeometry>
        </mxCell>
        <mxCell id="3uJsMY3rL7ngxhOJtAn0-255" value="&lt;div style=&quot;text-align: center;&quot;&gt;&lt;b&gt;Review ID&amp;nbsp; &amp;nbsp;&lt;/b&gt;&lt;/div&gt;&lt;div style=&quot;text-align: center;&quot;&gt;&lt;b&gt;int NOT NULL&lt;/b&gt;&lt;/div&gt;" style="shape=partialRectangle;connectable=0;fillColor=none;top=0;left=0;bottom=0;right=0;align=left;spacingLeft=6;overflow=hidden;whiteSpace=wrap;html=1;" parent="1" vertex="1">
          <mxGeometry x="1195" y="-360" width="180" height="30" as="geometry">
            <mxRectangle width="150" height="30" as="alternateBounds" />
          </mxGeometry>
        </mxCell>
        <mxCell id="3uJsMY3rL7ngxhOJtAn0-256" value="" style="edgeStyle=entityRelationEdgeStyle;fontSize=12;html=1;endArrow=ERmandOne;startArrow=ERmandOne;rounded=0;entryX=1;entryY=0.5;entryDx=0;entryDy=0;" parent="1" target="3uJsMY3rL7ngxhOJtAn0-202" edge="1">
          <mxGeometry width="100" height="100" relative="1" as="geometry">
            <mxPoint x="610" y="-350" as="sourcePoint" />
            <mxPoint x="670" y="-620" as="targetPoint" />
          </mxGeometry>
        </mxCell>
        <mxCell id="3uJsMY3rL7ngxhOJtAn0-257" value="" style="edgeStyle=entityRelationEdgeStyle;fontSize=12;html=1;endArrow=ERoneToMany;startArrow=ERzeroToOne;rounded=0;exitX=0;exitY=0.5;exitDx=0;exitDy=0;" parent="1" source="3uJsMY3rL7ngxhOJtAn0-137" target="3uJsMY3rL7ngxhOJtAn0-174" edge="1">
          <mxGeometry width="100" height="100" relative="1" as="geometry">
            <mxPoint x="755" y="-490" as="sourcePoint" />
            <mxPoint x="565" y="-435" as="targetPoint" />
          </mxGeometry>
        </mxCell>
        <mxCell id="3uJsMY3rL7ngxhOJtAn0-260" value="" style="edgeStyle=entityRelationEdgeStyle;fontSize=12;html=1;endArrow=ERoneToMany;startArrow=ERzeroToOne;rounded=0;entryX=0;entryY=0.5;entryDx=0;entryDy=0;exitX=1;exitY=0.5;exitDx=0;exitDy=0;" parent="1" source="3uJsMY3rL7ngxhOJtAn0-217" target="3uJsMY3rL7ngxhOJtAn0-181" edge="1">
          <mxGeometry width="100" height="100" relative="1" as="geometry">
            <mxPoint x="200" y="-180" as="sourcePoint" />
            <mxPoint x="300" y="-280" as="targetPoint" />
          </mxGeometry>
        </mxCell>
        <mxCell id="3uJsMY3rL7ngxhOJtAn0-261" value="" style="edgeStyle=entityRelationEdgeStyle;fontSize=12;html=1;endArrow=ERoneToMany;startArrow=ERzeroToOne;rounded=0;entryX=0;entryY=0.5;entryDx=0;entryDy=0;exitX=1;exitY=0.5;exitDx=0;exitDy=0;" parent="1" source="3uJsMY3rL7ngxhOJtAn0-137" target="3uJsMY3rL7ngxhOJtAn0-240" edge="1">
          <mxGeometry width="100" height="100" relative="1" as="geometry">
            <mxPoint x="1110" y="-255" as="sourcePoint" />
            <mxPoint x="1290" y="-375" as="targetPoint" />
          </mxGeometry>
        </mxCell>
        <mxCell id="lXqlF9-5KSGG-8EaUeMw-1" value="" style="endArrow=none;html=1;rounded=0;exitX=0.221;exitY=0.978;exitDx=0;exitDy=0;exitPerimeter=0;" parent="1" source="3uJsMY3rL7ngxhOJtAn0-195" edge="1">
          <mxGeometry width="50" height="50" relative="1" as="geometry">
            <mxPoint x="360" y="-190" as="sourcePoint" />
            <mxPoint x="400" y="-210" as="targetPoint" />
          </mxGeometry>
        </mxCell>
        <mxCell id="lXqlF9-5KSGG-8EaUeMw-2" value="&lt;b style=&quot;border-color: var(--border-color);&quot;&gt;&lt;u style=&quot;border-color: var(--border-color);&quot;&gt;Employees&lt;/u&gt;&lt;/b&gt;" style="shape=table;startSize=30;container=1;collapsible=1;childLayout=tableLayout;fixedRows=1;rowLines=0;fontStyle=1;align=center;resizeLast=1;html=1;" parent="1" vertex="1">
          <mxGeometry x="755.75" y="-120" width="240" height="170" as="geometry" />
        </mxCell>
        <mxCell id="lXqlF9-5KSGG-8EaUeMw-3" value="" style="shape=tableRow;horizontal=0;startSize=0;swimlaneHead=0;swimlaneBody=0;fillColor=none;collapsible=0;dropTarget=0;points=[[0,0.5],[1,0.5]];portConstraint=eastwest;top=0;left=0;right=0;bottom=1;" parent="lXqlF9-5KSGG-8EaUeMw-2" vertex="1">
          <mxGeometry y="30" width="240" height="30" as="geometry" />
        </mxCell>
        <mxCell id="lXqlF9-5KSGG-8EaUeMw-4" value="PK" style="shape=partialRectangle;connectable=0;fillColor=none;top=0;left=0;bottom=0;right=0;fontStyle=1;overflow=hidden;whiteSpace=wrap;html=1;" parent="lXqlF9-5KSGG-8EaUeMw-3" vertex="1">
          <mxGeometry width="30" height="30" as="geometry">
            <mxRectangle width="30" height="30" as="alternateBounds" />
          </mxGeometry>
        </mxCell>
        <mxCell id="lXqlF9-5KSGG-8EaUeMw-5" value="" style="shape=partialRectangle;connectable=0;fillColor=none;top=0;left=0;bottom=0;right=0;align=left;spacingLeft=6;fontStyle=5;overflow=hidden;whiteSpace=wrap;html=1;" parent="lXqlF9-5KSGG-8EaUeMw-3" vertex="1">
          <mxGeometry x="30" width="210" height="30" as="geometry">
            <mxRectangle width="210" height="30" as="alternateBounds" />
          </mxGeometry>
        </mxCell>
        <mxCell id="lXqlF9-5KSGG-8EaUeMw-6" value="" style="shape=tableRow;horizontal=0;startSize=0;swimlaneHead=0;swimlaneBody=0;fillColor=none;collapsible=0;dropTarget=0;points=[[0,0.5],[1,0.5]];portConstraint=eastwest;top=0;left=0;right=0;bottom=0;" parent="lXqlF9-5KSGG-8EaUeMw-2" vertex="1">
          <mxGeometry y="60" width="240" height="20" as="geometry" />
        </mxCell>
        <mxCell id="lXqlF9-5KSGG-8EaUeMw-7" value="" style="shape=partialRectangle;connectable=0;fillColor=none;top=0;left=0;bottom=0;right=0;editable=1;overflow=hidden;whiteSpace=wrap;html=1;" parent="lXqlF9-5KSGG-8EaUeMw-6" vertex="1">
          <mxGeometry width="30" height="20" as="geometry">
            <mxRectangle width="30" height="20" as="alternateBounds" />
          </mxGeometry>
        </mxCell>
        <mxCell id="lXqlF9-5KSGG-8EaUeMw-8" value="Name&amp;nbsp;varchar(512) NOT NULL" style="shape=partialRectangle;connectable=0;fillColor=none;top=0;left=0;bottom=0;right=0;align=left;spacingLeft=6;overflow=hidden;whiteSpace=wrap;html=1;" parent="lXqlF9-5KSGG-8EaUeMw-6" vertex="1">
          <mxGeometry x="30" width="210" height="20" as="geometry">
            <mxRectangle width="210" height="20" as="alternateBounds" />
          </mxGeometry>
        </mxCell>
        <mxCell id="lXqlF9-5KSGG-8EaUeMw-9" value="" style="shape=tableRow;horizontal=0;startSize=0;swimlaneHead=0;swimlaneBody=0;fillColor=none;collapsible=0;dropTarget=0;points=[[0,0.5],[1,0.5]];portConstraint=eastwest;top=0;left=0;right=0;bottom=0;" parent="lXqlF9-5KSGG-8EaUeMw-2" vertex="1">
          <mxGeometry y="80" width="240" height="30" as="geometry" />
        </mxCell>
        <mxCell id="lXqlF9-5KSGG-8EaUeMw-10" value="" style="shape=partialRectangle;connectable=0;fillColor=none;top=0;left=0;bottom=0;right=0;editable=1;overflow=hidden;whiteSpace=wrap;html=1;" parent="lXqlF9-5KSGG-8EaUeMw-9" vertex="1">
          <mxGeometry width="30" height="30" as="geometry">
            <mxRectangle width="30" height="30" as="alternateBounds" />
          </mxGeometry>
        </mxCell>
        <mxCell id="lXqlF9-5KSGG-8EaUeMw-11" value="Email&amp;nbsp;varchar(512) NOT NULL" style="shape=partialRectangle;connectable=0;fillColor=none;top=0;left=0;bottom=0;right=0;align=left;spacingLeft=6;overflow=hidden;whiteSpace=wrap;html=1;" parent="lXqlF9-5KSGG-8EaUeMw-9" vertex="1">
          <mxGeometry x="30" width="210" height="30" as="geometry">
            <mxRectangle width="210" height="30" as="alternateBounds" />
          </mxGeometry>
        </mxCell>
        <mxCell id="lXqlF9-5KSGG-8EaUeMw-12" value="" style="shape=tableRow;horizontal=0;startSize=0;swimlaneHead=0;swimlaneBody=0;fillColor=none;collapsible=0;dropTarget=0;points=[[0,0.5],[1,0.5]];portConstraint=eastwest;top=0;left=0;right=0;bottom=0;" parent="lXqlF9-5KSGG-8EaUeMw-2" vertex="1">
          <mxGeometry y="110" width="240" height="30" as="geometry" />
        </mxCell>
        <mxCell id="lXqlF9-5KSGG-8EaUeMw-13" value="" style="shape=partialRectangle;connectable=0;fillColor=none;top=0;left=0;bottom=0;right=0;editable=1;overflow=hidden;whiteSpace=wrap;html=1;" parent="lXqlF9-5KSGG-8EaUeMw-12" vertex="1">
          <mxGeometry width="30" height="30" as="geometry">
            <mxRectangle width="30" height="30" as="alternateBounds" />
          </mxGeometry>
        </mxCell>
        <mxCell id="lXqlF9-5KSGG-8EaUeMw-14" value="Phone Number&amp;nbsp;int NOT NULL" style="shape=partialRectangle;connectable=0;fillColor=none;top=0;left=0;bottom=0;right=0;align=left;spacingLeft=6;overflow=hidden;whiteSpace=wrap;html=1;" parent="lXqlF9-5KSGG-8EaUeMw-12" vertex="1">
          <mxGeometry x="30" width="210" height="30" as="geometry">
            <mxRectangle width="210" height="30" as="alternateBounds" />
          </mxGeometry>
        </mxCell>
        <mxCell id="lXqlF9-5KSGG-8EaUeMw-15" value="" style="shape=tableRow;horizontal=0;startSize=0;swimlaneHead=0;swimlaneBody=0;fillColor=none;collapsible=0;dropTarget=0;points=[[0,0.5],[1,0.5]];portConstraint=eastwest;top=0;left=0;right=0;bottom=0;" parent="lXqlF9-5KSGG-8EaUeMw-2" vertex="1">
          <mxGeometry y="140" width="240" height="30" as="geometry" />
        </mxCell>
        <mxCell id="lXqlF9-5KSGG-8EaUeMw-16" value="" style="shape=partialRectangle;connectable=0;fillColor=none;top=0;left=0;bottom=0;right=0;editable=1;overflow=hidden;whiteSpace=wrap;html=1;" parent="lXqlF9-5KSGG-8EaUeMw-15" vertex="1">
          <mxGeometry width="30" height="30" as="geometry">
            <mxRectangle width="30" height="30" as="alternateBounds" />
          </mxGeometry>
        </mxCell>
        <mxCell id="lXqlF9-5KSGG-8EaUeMw-17" value="&lt;div&gt;Role&lt;/div&gt;varchar(512) NOT NULL" style="shape=partialRectangle;connectable=0;fillColor=none;top=0;left=0;bottom=0;right=0;align=left;spacingLeft=6;overflow=hidden;whiteSpace=wrap;html=1;" parent="lXqlF9-5KSGG-8EaUeMw-15" vertex="1">
          <mxGeometry x="30" width="210" height="30" as="geometry">
            <mxRectangle width="210" height="30" as="alternateBounds" />
          </mxGeometry>
        </mxCell>
        <mxCell id="lXqlF9-5KSGG-8EaUeMw-18" value="&lt;b&gt;Employee ID&lt;/b&gt;&lt;div style=&quot;text-align: center;&quot;&gt;&lt;b style=&quot;background-color: initial;&quot;&gt;int NOT NULL&lt;/b&gt;&lt;/div&gt;&lt;span id=&quot;docs-internal-guid-35186109-7fff-0d10-849f-b8f812b0c8e2&quot;&gt;&lt;/span&gt;" style="shape=partialRectangle;connectable=0;fillColor=none;top=0;left=0;bottom=0;right=0;align=left;spacingLeft=6;overflow=hidden;whiteSpace=wrap;html=1;" parent="1" vertex="1">
          <mxGeometry x="785.75" y="-90" width="200" height="30" as="geometry">
            <mxRectangle width="150" height="30" as="alternateBounds" />
          </mxGeometry>
        </mxCell>
        <mxCell id="KUZv_DHwp51-NXE-72l9-2" value="" style="edgeStyle=entityRelationEdgeStyle;fontSize=12;html=1;endArrow=ERoneToMany;startArrow=ERzeroToOne;rounded=0;exitX=1;exitY=0.5;exitDx=0;exitDy=0;entryX=0;entryY=0.5;entryDx=0;entryDy=0;" edge="1" parent="1" source="lXqlF9-5KSGG-8EaUeMw-3" target="3uJsMY3rL7ngxhOJtAn0-243">
          <mxGeometry width="100" height="100" relative="1" as="geometry">
            <mxPoint x="1094.25" y="-180" as="sourcePoint" />
            <mxPoint x="1044.25" y="-130" as="targetPoint" />
          </mxGeometry>
        </mxCell>
      </root>
    </mxGraphModel>
  </diagram>
</mxfile>
